<svg xmlns="http://www.w3.org/2000/svg" viewBox="0 0 1200 630"><defs><linearGradient id="bg" x1="0" y1="0" x2="1" y2="1"><stop offset="0" stop-color="#020617"/><stop offset="1" stop-color="#0c1735"/></linearGradient><linearGradient id="brand" x1="0" y1="0" x2="1" y2="0"><stop offset="0" stop-color="#38bdf8"/><stop offset="1" stop-color="#a78bfa"/></linearGradient><radialGradient id="glow" cx="0.7" cy="0.3" r="0.6"><stop offset="0" stop-color="#0ea5e9" stop-opacity="0.35"/><stop offset="1" stop-color="#0ea5e9" stop-opacity="0"/></radialGradient></defs><rect width="1200" height="630" fill="url(#bg)"/><rect width="1200" height="630" fill="url(#glow)"/><g opacity="0.18" stroke="#1e3a8a" stroke-width="1" fill="none"><circle cx="900" cy="180" r="60"/><circle cx="900" cy="180" r="120"/><circle cx="900" cy="180" r="200"/><circle cx="900" cy="180" r="290"/></g><g transform="translate(80,140)"><rect width="84" height="84" rx="20" fill="url(#brand)"/><path d="M18 52 L66 26 L62 36 L42 42 L48 60 L40 64 L34 50 L22 54 Z" fill="#020617"/></g><text x="190" y="200" fill="#fff" font-family="-apple-system, system-ui, sans-serif" font-size="84" font-weight="800" letter-spacing="-2">Flight Tracker</text><text x="192" y="248" fill="#94a3b8" font-family="-apple-system, system-ui, sans-serif" font-size="28" font-weight="500">Real-time aircraft positions. Anywhere on Earth.</text><g transform="translate(80, 360)"><rect width="1040" height="180" rx="24" fill="rgba(15,23,42,0.6)" stroke="#1e293b"/><g font-family="-apple-system, system-ui, sans-serif" fill="#fff"><text x="40" y="80" font-size="22" fill="#64748b" font-weight="600">LIVE</text><text x="40" y="130" font-size="56" font-weight="800" fill="#34d399">25,000+</text><text x="40" y="160" font-size="16" fill="#94a3b8">aircraft / s</text><text x="290" y="80" font-size="22" fill="#64748b" font-weight="600">UPDATE</text><text x="290" y="130" font-size="56" font-weight="800" fill="#38bdf8">8 s</text><text x="290" y="160" font-size="16" fill="#94a3b8">refresh rate</text><text x="500" y="80" font-size="22" fill="#64748b" font-weight="600">COVERAGE</text><text x="500" y="130" font-size="56" font-weight="800" fill="#a78bfa">Global</text><text x="500" y="160" font-size="16" fill="#94a3b8">ADS-B + Mode-S</text><text x="780" y="80" font-size="22" fill="#64748b" font-weight="600">PRICE</text><text x="780" y="130" font-size="56" font-weight="800" fill="#f59e0b">Free</text><text x="780" y="160" font-size="16" fill="#94a3b8">no signup. ever.</text></g></g></svg>
